<?xml version="1.0" standalone="no"?>
<!DOCTYPE svg PUBLIC "-//W3C//DTD SVG 20010904//EN"
 "http://www.w3.org/TR/2001/REC-SVG-20010904/DTD/svg10.dtd">
<svg version="1.0" xmlns="http://www.w3.org/2000/svg"
 width="739.000000pt" height="323.000000pt" viewBox="0 0 739.000000 323.000000"
 preserveAspectRatio="xMidYMid meet">

<g transform="translate(0.000000,323.000000) scale(0.100000,-0.100000)"
fill="#000000" stroke="none">
<path d="M1681 2919 c-124 -22 -229 -95 -270 -190 -34 -77 -45 -185 -32 -313
44 -438 -30 -701 -297 -1055 -192 -253 -262 -405 -262 -565 0 -229 199 -376
587 -433 144 -21 536 -23 688 -4 284 35 430 69 655 153 357 133 633 387 749
688 53 137 74 265 68 425 -5 155 -24 236 -81 360 -35 76 -104 190 -111 183 -8
-7 19 -83 41 -116 38 -56 86 -183 106 -282 16 -77 19 -119 15 -220 -18 -426
-260 -760 -699 -964 -176 -82 -389 -143 -598 -172 -63 -9 -117 -17 -120 -19
-3 -2 -87 -9 -185 -15 -367 -23 -692 20 -878 118 -291 151 -273 429 54 847
158 203 255 406 294 615 24 127 26 221 10 399 -17 198 -10 285 31 368 46 95
132 145 282 164 144 18 367 -9 560 -70 42 -13 72 -17 90 -11 l27 7 -27 11
c-44 18 -206 60 -298 77 -103 20 -325 28 -399 14z"/>
<path d="M2732 2217 c-53 -30 -72 -110 -38 -161 73 -112 248 -28 206 99 -21
64 -106 96 -168 62z"/>
<path d="M2170 1901 c-87 -27 -164 -95 -203 -179 -18 -39 -21 -66 -22 -157 0
-130 16 -175 90 -254 62 -66 127 -94 225 -94 167 -1 292 110 319 285 27 168
-65 344 -206 392 -48 17 -159 20 -203 7z m146 -167 c51 -24 88 -106 82 -182
-8 -105 -60 -172 -136 -172 -127 0 -189 209 -95 320 43 52 90 62 149 34z"/>
<path d="M2755 1894 c-50 -51 -78 -170 -78 -334 0 -282 102 -441 182 -282 35
69 46 142 46 292 0 122 -4 156 -22 216 -13 39 -32 83 -44 97 -23 31 -59 35
-84 11z"/>
<path d="M5951 1844 c-12 -15 -21 -31 -21 -35 0 -13 54 -11 66 1 8 8 19 8 38
0 44 -16 75 -12 101 15 14 13 25 29 25 35 0 13 -67 13 -75 0 -4 -6 -15 -6 -31
0 -45 18 -81 12 -103 -16z"/>
<path d="M4015 1762 c-46 -22 -65 -55 -65 -112 0 -63 37 -96 139 -123 89 -23
108 -39 98 -79 -15 -57 -110 -58 -155 -2 -21 27 -34 34 -61 34 -31 0 -33 -2
-26 -27 17 -69 83 -113 171 -113 94 0 144 42 144 122 0 72 -33 102 -135 128
-45 11 -85 27 -92 37 -33 44 0 83 70 83 37 0 49 -5 66 -26 16 -20 27 -25 55
-22 l36 3 -17 34 c-27 52 -64 74 -130 78 -42 3 -69 -2 -98 -15z"/>
<path d="M4415 1766 c-54 -23 -83 -68 -90 -141 -11 -102 2 -189 33 -227 51
-61 143 -76 222 -35 66 32 80 68 80 197 0 83 -4 113 -18 140 -35 67 -149 100
-227 66z m130 -62 c30 -12 45 -60 45 -144 0 -99 -16 -135 -65 -149 -42 -11
-73 -5 -102 22 -21 19 -23 29 -23 128 0 104 1 108 26 128 26 21 84 28 119 15z"/>
<path d="M5560 1758 c-65 -33 -80 -69 -80 -196 0 -65 5 -115 14 -136 15 -35
63 -76 90 -76 25 0 28 -22 11 -63 l-15 -37 39 0 c37 0 39 1 50 44 9 37 16 46
44 55 44 15 85 58 93 99 6 31 6 32 -28 32 -28 0 -37 -5 -46 -26 -18 -38 -71
-57 -119 -41 -54 18 -64 44 -61 160 3 90 5 101 27 118 35 29 105 26 136 -6 14
-13 25 -29 25 -35 0 -5 16 -10 36 -10 36 0 36 1 30 32 -18 92 -146 136 -246
86z"/>
<path d="M5976 1770 c-15 -5 -37 -17 -48 -27 -40 -36 -48 -67 -48 -186 0 -102
2 -118 23 -148 29 -44 80 -69 142 -69 62 0 113 25 142 69 21 30 23 46 23 150
0 99 -3 121 -20 149 -36 58 -132 86 -214 62z m139 -85 c23 -22 25 -31 25 -122
0 -73 -4 -104 -15 -121 -32 -44 -121 -45 -157 -1 -15 17 -18 41 -18 121 0 92
2 101 25 123 18 19 35 25 70 25 35 0 52 -6 70 -25z"/>
<path d="M6710 1765 c-50 -23 -70 -52 -70 -107 0 -67 34 -104 115 -124 87 -22
114 -34 120 -55 25 -78 -121 -104 -160 -29 -13 25 -22 30 -51 30 -34 0 -36 -1
-29 -27 11 -46 34 -74 78 -94 77 -35 186 -18 222 35 20 27 19 106 -1 134 -20
29 -61 49 -126 63 -69 14 -98 33 -98 64 0 36 26 55 76 55 35 0 51 -6 70 -26
20 -19 34 -24 60 -22 l34 3 -17 34 c-10 19 -30 44 -45 55 -37 26 -130 32 -178
11z"/>
<path d="M4740 1560 l0 -210 140 0 140 0 0 30 0 30 -105 0 -105 0 0 180 0 180
-35 0 -35 0 0 -210z"/>
<path d="M5072 1596 c3 -170 4 -175 28 -202 74 -79 218 -71 278 16 21 31 22
43 22 196 l0 164 -35 0 -35 0 0 -153 c0 -172 -6 -189 -67 -206 -42 -12 -95 6
-112 37 -7 12 -11 83 -11 171 l0 151 -36 0 -35 0 3 -174z"/>
<path d="M6290 1560 l0 -210 140 0 140 0 0 30 0 30 -100 0 -100 0 0 60 0 60
100 0 100 0 0 30 0 30 -100 0 -100 0 0 60 0 60 100 0 100 0 0 30 0 30 -140 0
-140 0 0 -210z"/>
<path d="M3640 1290 l0 -30 146 0 145 0 -3 28 -3 27 -142 3 -143 3 0 -31z"/>
</g>
</svg>
